<?xml version="1.0" encoding="UTF-8" standalone="no"?>
<svg
   id="Layer_1"
   viewBox="0 0 848.70471 596.44599"
   version="1.1"
   sodipodi:docname="ul-logo-stacked-med-w.svg"
   width="848.70471"
   height="596.44598"
   inkscape:version="1.2.2 (b0a8486541, 2022-12-01)"
   xmlns:inkscape="http://www.inkscape.org/namespaces/inkscape"
   xmlns:sodipodi="http://sodipodi.sourceforge.net/DTD/sodipodi-0.dtd"
   xmlns="http://www.w3.org/2000/svg"
   xmlns:svg="http://www.w3.org/2000/svg">
  <sodipodi:namedview
     id="namedview396"
     pagecolor="#ffffff"
     bordercolor="#000000"
     borderopacity="0.25"
     inkscape:showpageshadow="2"
     inkscape:pageopacity="0.0"
     inkscape:pagecheckerboard="0"
     inkscape:deskcolor="#d1d1d1"
     showgrid="false"
     inkscape:zoom="0.68229167"
     inkscape:cx="133.37405"
     inkscape:cy="317.31298"
     inkscape:window-width="1920"
     inkscape:window-height="1043"
     inkscape:window-x="0"
     inkscape:window-y="0"
     inkscape:window-maximized="1"
     inkscape:current-layer="Layer_1" />
  <defs
     id="defs365">
    <style
       id="style363">.cls-1{fill:#fff;}</style>
  </defs>
  <circle
     cx="406.60434"
     cy="228.94809"
     id="circle367"
     r="228.94809"
     style="stroke-width:1.08403;fill:#ffffff" />
  <path
     class="cls-1"
     d="M 545.52322,350.26237 H 267.68525 V 206.35679 c 0,-76.59788 62.32114,-138.919028 138.91902,-138.919028 76.59785,0 138.89727,61.356358 138.89727,143.634578 0,0 -69.44321,0.065 -69.44321,0.0542 0,-45.03079 -31.16599,-76.1751 -69.45406,-76.1751 -38.2881,0 -69.45409,31.15515 -69.45409,69.45409 v 78.33233 h 208.37304 v 67.51367 z"
     id="path369"
     style="stroke-width:1.08403;fill:#000000" />
  <path
     d="m 518.57734,594.6572 h -99.841 v -51.70937 c 0,-27.52564 22.39496,-49.92055 49.9206,-49.92055 27.5255,0 49.9204,22.04824 49.9204,51.6123 0,0 -24.9602,0.0277 -24.9602,0.0277 0,-16.18258 -11.2043,-27.3731 -24.9602,-27.3731 -13.7559,0 -24.96034,11.19052 -24.96034,24.96028 v 28.14964 h 74.88074 v 24.26693 z"
     id="path371"
     style="stroke-width:1.38668;fill:#ffffff" />
  <path
     d="m 798.77034,594.6572 v 0 l -49.9067,-0.0555 v -99.78563 h 49.9206 c 27.5256,0 49.9205,22.39491 49.9205,49.92055 0,27.52563 -22.3949,49.92055 -49.9205,49.92055 z m -24.9603,-24.28081 24.9742,0.0277 c 13.7558,0 24.9464,-11.20439 24.9464,-24.96028 0,0 0,-1.41441 0,-1.41441 0,-13.75589 -11.2044,-24.93254 -24.9603,-24.93254 h -24.9603 v 51.29336 z"
     id="path373"
     style="stroke-width:1.38668;fill:#ffffff" />
  <path
     d="m 732.18184,594.6572 h -99.8411 v -51.69551 c 0,-27.52563 22.3949,-49.92055 49.9206,-49.92055 27.5256,0 49.9205,22.39492 49.9205,49.92055 v 12.48014 h -74.8808 v 14.94843 h 74.8808 z m -73.4941,-62.91376 h 47.1472 c -4.7147,-8.12596 -12.3415,-14.31056 -23.5736,-14.31056 -11.2321,0 -18.8589,6.1846 -23.5736,14.31056 z"
     id="path375"
     style="stroke-width:1.38668;fill:#ffffff" />
  <polygon
     points="781.95,809.25 727.95,809.25 727.95,737.25 745.95,737.25 745.95,791.75 781.95,791.75 "
     id="polygon377"
     transform="matrix(1.3866819,0,0,1.3866819,-779.19044,-527.51516)"
     style="fill:#ffffff" />
  <path
     d="m 357.7362,596.44601 c -28.51018,0 -51.70936,-23.19918 -51.70936,-51.70936 0,-28.51018 23.19918,-51.70937 51.70936,-51.70937 28.51019,0 51.70937,23.19919 51.70937,51.70937 0,28.51018 -23.19918,51.70936 -51.70937,51.70936 z m 0,-79.1518 c -14.72656,0 -26.72136,11.98093 -26.74909,26.70749 0,0.0139 0,1.42829 0,1.44215 0,14.74043 11.9948,26.7491 26.74909,26.7491 14.7543,0 26.7491,-11.9948 26.7491,-26.7491 0,-0.0139 0,-1.42828 0,-1.44215 -0.0277,-14.72656 -12.00867,-26.69362 -26.7491,-26.69362 z"
     id="path379"
     style="stroke-width:1.38668;fill:#ffffff" />
  <polygon
     points="996.26,809.25 1011.1,809.25 1011.1,798.6 982.92,771.86 1008.96,747.57 1008.96,737.25 994.12,737.25 965.54,765.67 964.53,765.67 964.53,737.25 946.53,737.25 946.53,809.25 964.53,809.25 964.53,778.57 965.53,778.57 "
     id="polygon389"
     transform="matrix(1.3866819,0,0,1.3866819,-779.19044,-527.51516)"
     style="fill:#ffffff" />
  <path
     d="m 212.16234,594.6572 h -24.96028 v -52.44432 c 0,-13.76975 -11.19052,-24.96027 -24.96027,-24.96027 -13.76976,0 -24.96028,11.19052 -24.96028,24.96027 v 28.19125 h 24.96028 v 24.26693 h -49.92055 v -51.75097 c 0,-27.52563 22.39491,-49.92055 49.92055,-49.92055 27.52563,0 49.92055,22.39492 49.92055,49.92055 v 51.75097 z"
     id="path391"
     style="stroke-width:1.38668;fill:#ffffff" />
  <path
     d="M 49.92055,596.44601 C 22.39491,596.44601 0,574.0511 0,546.52547 V 494.8161 h 24.96027 v 52.40271 c 0,13.76975 11.19053,24.96027 24.96028,24.96027 13.76975,0 24.96027,-11.19052 24.96027,-24.96027 V 519.06916 H 49.92055 V 494.80223 H 99.8411 v 51.70937 c 0,27.52563 -22.39491,49.92055 -49.92055,49.92055 z"
     id="path393"
     style="stroke-width:1.38668;fill:#ffffff" />
</svg>
